<svg width="16.100098" height="16.100098" viewBox="0 0 16.1001 16.1001" fill="none" xmlns="http://www.w3.org/2000/svg" xmlns:xlink="http://www.w3.org/1999/xlink">
	<desc>
			Created with Pixso.
	</desc>
	<defs/>
	<path id="credit card" d="M13.15 0.55C13.99 0.55 14.41 0.55 14.73 0.75C15.01 0.93 15.24 1.22 15.38 1.57C15.55 1.97 15.55 2.5 15.55 3.55L15.55 12.55C15.55 13.6 15.55 14.12 15.38 14.52C15.24 14.87 15.01 15.16 14.73 15.34C14.41 15.55 13.99 15.55 13.15 15.55L2.94 15.55C2.1 15.55 1.68 15.55 1.36 15.34C1.08 15.16 0.85 14.87 0.71 14.52C0.55 14.12 0.55 13.6 0.55 12.55L0.55 3.55C0.55 2.5 0.55 1.97 0.71 1.57C0.85 1.22 1.08 0.93 1.36 0.75C1.68 0.55 2.1 0.55 2.94 0.55L13.15 0.55ZM0.55 4.3L15.55 4.3M3.55 11.8L6.55 11.8M9.55 11.8L12.55 11.8" stroke="#3C4242" stroke-opacity="1.000000" stroke-width="1.100000"/>
</svg>
