<svg width="20.000000" height="20.000000" viewBox="0 0 20 20" fill="none" xmlns="http://www.w3.org/2000/svg" xmlns:xlink="http://www.w3.org/1999/xlink">
	<desc>
			Created with Pixso.
	</desc>
	<defs>
		<clipPath id="clip210_460">
			<rect id="Delete" rx="-0.500000" width="19.000000" height="19.000000" transform="translate(0.500000 0.500000)" fill="white" fill-opacity="0"/>
		</clipPath>
	</defs>
	<g clip-path="url(#clip210_460)">
		<path id="Icon" d="M7.83 5.08L12.16 5.08Q12.15 4.95 12.13 4.83Q12.09 4.63 12 4.44Q11.97 4.38 11.94 4.32Q11.79 4.05 11.55 3.83Q11.48 3.76 11.4 3.7Q11.15 3.52 10.86 3.4Q10.74 3.36 10.61 3.32Q10.31 3.25 10 3.25Q9.68 3.25 9.38 3.32Q9.25 3.36 9.13 3.4Q8.84 3.52 8.59 3.7Q8.51 3.76 8.44 3.83Q8.2 4.05 8.05 4.32Q8.02 4.38 7.99 4.44Q7.9 4.63 7.86 4.83Q7.84 4.95 7.83 5.08ZM13.66 5.08L15.83 5.08C16.25 5.08 16.58 5.41 16.58 5.83C16.58 6.25 16.25 6.58 15.83 6.58L15.75 6.58L15.75 14.83Q15.75 15.68 15.72 15.98Q15.67 16.55 15.48 16.93Q15.39 17.1 15.28 17.25Q15.17 17.4 15.04 17.54Q14.9 17.67 14.75 17.78Q14.6 17.89 14.43 17.98Q14.05 18.17 13.48 18.22Q13.18 18.25 12.33 18.25L7.66 18.25Q6.81 18.25 6.51 18.22Q5.94 18.17 5.56 17.98Q5.39 17.89 5.24 17.78Q5.09 17.67 4.95 17.54Q4.82 17.4 4.71 17.25Q4.6 17.1 4.51 16.93Q4.32 16.55 4.27 15.98Q4.25 15.68 4.25 14.83L4.25 6.58L4.16 6.58C3.74 6.58 3.41 6.25 3.41 5.83C3.41 5.41 3.74 5.08 4.16 5.08L6.33 5.08Q6.34 4.79 6.4 4.5Q6.47 4.15 6.63 3.81Q6.72 3.61 6.83 3.43Q7.07 3.04 7.43 2.72Q7.6 2.56 7.8 2.42Q8.16 2.17 8.59 2.01Q8.84 1.91 9.1 1.85Q9.54 1.75 10 1.75Q10.45 1.75 10.89 1.85Q11.15 1.91 11.4 2.01Q11.83 2.17 12.19 2.42Q12.39 2.56 12.56 2.72Q12.92 3.04 13.16 3.43Q13.27 3.61 13.36 3.81Q13.52 4.15 13.59 4.5Q13.65 4.79 13.66 5.08ZM5.75 6.58L5.75 14.83Q5.75 15.61 5.77 15.86Q5.79 16.13 5.85 16.24Q5.91 16.38 6.01 16.48Q6.11 16.58 6.25 16.65Q6.36 16.7 6.63 16.72Q6.88 16.75 7.66 16.75L12.33 16.75Q13.11 16.75 13.36 16.72Q13.63 16.7 13.74 16.65Q13.88 16.58 13.98 16.48Q14.08 16.38 14.15 16.24Q14.2 16.13 14.23 15.86Q14.25 15.61 14.25 14.83L14.25 6.58L5.75 6.58ZM9.08 8.33C9.08 7.91 8.75 7.58 8.33 7.58C7.91 7.58 7.58 7.91 7.58 8.33L7.58 15C7.58 15.41 7.91 15.75 8.33 15.75C8.75 15.75 9.08 15.41 9.08 15L9.08 8.33ZM12.41 8.33L12.41 15C12.41 15.41 12.08 15.75 11.66 15.75C11.24 15.75 10.91 15.41 10.91 15L10.91 8.33C10.91 7.91 11.24 7.58 11.66 7.58C12.08 7.58 12.41 7.91 12.41 8.33Z" fill="#3C4242" fill-opacity="1.000000" fill-rule="evenodd"/>
	</g>
</svg>
