<svg width="17.104492" height="17.100098" viewBox="0 0 17.1045 17.1001" fill="none" xmlns="http://www.w3.org/2000/svg" xmlns:xlink="http://www.w3.org/1999/xlink">
	<desc>
			Created with Pixso.
	</desc>
	<defs/>
	<path id="Free Shipping &amp; Returns" d="M3.21 16.54C2.23 16.54 1.44 15.75 1.44 14.77C1.44 13.79 2.23 12.99 3.21 12.99C4.2 12.99 4.99 13.79 4.99 14.77C4.99 15.75 4.2 16.54 3.21 16.54ZM13.88 4.1C12.9 4.1 12.1 3.3 12.1 2.32C12.1 1.34 12.9 0.55 13.88 0.55C14.86 0.55 15.66 1.34 15.66 2.32C15.66 3.3 14.86 4.1 13.88 4.1ZM12.1 2.32L4.99 2.32C4.01 2.32 3.21 3.12 3.21 4.1L3.21 7.66M4.99 14.77L12.1 14.77C13.08 14.77 13.88 13.97 13.88 12.99L13.88 9.43M16.55 11.21L14.2 8.68C14.02 8.5 13.74 8.5 13.57 8.68L11.21 11.21M5.88 5.88L3.53 8.41C3.35 8.59 3.07 8.59 2.9 8.41L0.55 5.88" stroke="#3C4242" stroke-opacity="1.000000" stroke-width="1.100000"/>
</svg>
