<svg width="18.187500" height="15.995850" viewBox="0 0 18.1875 15.9958" fill="none" xmlns="http://www.w3.org/2000/svg" xmlns:xlink="http://www.w3.org/1999/xlink">
	<desc>
			Created with Pixso.
	</desc>
	<defs/>
	<path id="Vector" d="M16.96 0.86L16.23 0.13C16.02 -0.08 15.64 -0.05 15.4 0.24L12.84 2.78C11.68 2.29 10.42 2.05 9.09 2.05C5.14 2.06 1.72 4.37 0.07 7.68C-0.03 7.89 -0.03 8.14 0.07 8.32C0.83 9.89 1.99 11.18 3.43 12.16L1.33 14.29C1.09 14.53 1.06 14.91 1.22 15.12L1.95 15.86C2.16 16.06 2.55 16.03 2.79 15.74L16.83 1.7C17.14 1.46 17.17 1.07 16.96 0.87L16.96 0.86ZM9.94 5.7C9.67 5.63 9.38 5.55 9.11 5.55C7.75 5.55 6.66 6.64 6.66 8C6.66 8.27 6.72 8.56 6.8 8.83L5.73 9.89C5.41 9.33 5.23 8.7 5.23 8C5.23 5.87 6.95 4.16 9.08 4.16C9.78 4.16 10.4 4.34 10.96 4.66L9.94 5.7Z" fill="#807D7E" fill-opacity="1.000000" fill-rule="nonzero"/>
	<path id="Vector" d="M18.12 7.68C17.56 6.56 16.82 5.55 15.91 4.74L12.93 7.68L12.93 8C12.93 10.13 11.22 11.84 9.09 11.84L8.77 11.84L6.88 13.73C7.59 13.87 8.32 13.97 9.04 13.97C13 13.97 16.42 11.66 18.07 8.34C18.21 8.11 18.21 7.89 18.12 7.68L18.12 7.68Z" fill="#807D7E" fill-opacity="1.000000" fill-rule="nonzero"/>
</svg>
