<svg width="36.000000" height="36.000000" viewBox="0 0 36 36" fill="none" xmlns="http://www.w3.org/2000/svg" xmlns:xlink="http://www.w3.org/1999/xlink">
	<desc>
			Created with Pixso.
	</desc>
	<defs/>
	<rect id="Rectangle 69" rx="12.000000" width="36.000000" height="36.000000" fill="#F6F6F6" fill-opacity="1.000000"/>
	<path id="Vector" d="M17.96 14.07C15.81 14.07 14.07 15.8 14.07 17.95C14.07 20.1 15.81 21.84 17.96 21.84C20.11 21.84 21.84 20.1 21.84 17.95C21.84 15.8 20.11 14.07 17.96 14.07ZM17.96 20.48C16.57 20.48 15.43 19.35 15.43 17.95C15.43 16.56 16.57 15.43 17.96 15.43C19.35 15.43 20.48 16.56 20.48 17.95C20.48 19.35 19.35 20.48 17.96 20.48ZM22.91 13.91C22.91 14.41 22.5 14.82 22 14.82C21.5 14.82 21.09 14.41 21.09 13.91C21.09 13.41 21.5 13.01 22 13.01C22.5 13.01 22.91 13.41 22.91 13.91ZM25.48 14.83C25.42 13.62 25.14 12.54 24.26 11.66C23.37 10.77 22.29 10.49 21.08 10.43C19.83 10.36 16.08 10.36 14.83 10.43C13.62 10.49 12.55 10.77 11.66 11.65C10.77 12.54 10.49 13.61 10.43 14.83C10.36 16.08 10.36 19.83 10.43 21.08C10.49 22.29 10.77 23.37 11.66 24.25C12.55 25.14 13.62 25.41 14.83 25.48C16.08 25.55 19.83 25.55 21.08 25.48C22.29 25.42 23.37 25.14 24.26 24.25C25.14 23.37 25.42 22.29 25.48 21.08C25.55 19.83 25.55 16.08 25.48 14.83ZM23.86 22.42C23.6 23.08 23.09 23.59 22.42 23.86C21.43 24.26 19.06 24.16 17.96 24.16C16.86 24.16 14.49 24.25 13.49 23.86C12.83 23.6 12.32 23.09 12.05 22.42C11.66 21.42 11.75 19.06 11.75 17.95C11.75 16.85 11.66 14.48 12.05 13.49C12.32 12.83 12.83 12.32 13.49 12.05C14.49 11.65 16.86 11.74 17.96 11.74C19.06 11.74 21.43 11.66 22.42 12.05C23.09 12.31 23.6 12.82 23.86 13.49C24.26 14.49 24.17 16.85 24.17 17.95C24.17 19.06 24.26 21.43 23.86 22.42Z" fill="#2A2F2F" fill-opacity="1.000000" fill-rule="nonzero"/>
</svg>
