<svg width="36.000000" height="36.000000" viewBox="0 0 36 36" fill="none" xmlns="http://www.w3.org/2000/svg" xmlns:xlink="http://www.w3.org/1999/xlink">
	<desc>
			Created with Pixso.
	</desc>
	<defs/>
	<rect id="Rectangle 73" rx="12.000000" width="36.000000" height="36.000000" fill="#F6F6F6" fill-opacity="1.000000"/>
	<path id="in" d="M12.12 12.19Q11.98 12.45 11.98 12.78Q11.98 13.13 12.12 13.39Q12.21 13.55 12.35 13.69Q12.42 13.75 12.5 13.81Q12.84 14.04 13.33 14.04Q13.82 14.04 14.16 13.81Q14.24 13.75 14.31 13.69Q14.45 13.55 14.54 13.39Q14.68 13.13 14.68 12.78Q14.68 12.46 14.55 12.2Q14.46 12.03 14.32 11.89Q14.26 11.83 14.19 11.78Q13.85 11.54 13.33 11.54Q12.8 11.54 12.45 11.8Q12.4 11.84 12.34 11.89Q12.21 12.03 12.12 12.19ZM19.16 16.16L19.09 15.12L16.82 15.12L16.82 24.15L19.23 24.15L19.23 17.78Q19.48 17.36 19.85 17.14Q20.24 16.91 20.76 16.91Q21.53 16.91 21.87 17.26Q22.2 17.61 22.2 18.37L22.2 24.15L24.61 24.15L24.61 18.32Q24.6 16.64 23.9 15.8Q23.79 15.66 23.66 15.55Q22.97 14.95 21.76 14.95Q20.84 14.95 20.13 15.34Q19.59 15.64 19.16 16.16ZM12.12 24.15L14.54 24.15L14.54 15.12L12.12 15.12L12.12 24.15Z" fill="#2A2F2F" fill-opacity="1.000000" fill-rule="evenodd"/>
</svg>
