<svg width="20.000000" height="20.000000" viewBox="0 0 20 20" fill="none" xmlns="http://www.w3.org/2000/svg" xmlns:xlink="http://www.w3.org/1999/xlink">
	<desc>
			Created with Pixso.
	</desc>
	<defs>
		<clipPath id="clip211_525">
			<rect id="message" rx="-0.500000" width="19.000000" height="19.000000" transform="translate(0.500000 0.500000)" fill="white" fill-opacity="0"/>
		</clipPath>
	</defs>
	<g clip-path="url(#clip211_525)">
		<path id="Icon" d="M6.66 8.33L13.33 8.33M6.66 11.66L10 11.66M15.66 4.16C16.6 4.16 17.06 4.16 17.42 4.34C17.73 4.5 17.99 4.76 18.15 5.07C18.33 5.43 18.33 5.89 18.33 6.83L18.33 13.16C18.33 14.1 18.33 14.56 18.15 14.92C17.99 15.23 17.73 15.49 17.42 15.65C17.06 15.83 16.6 15.83 15.66 15.83L9.22 15.83C8.89 15.83 8.72 15.83 8.56 15.86C8.42 15.89 8.29 15.93 8.16 15.99C8.01 16.06 7.88 16.16 7.62 16.36L5.66 17.83C5.39 18.03 5 17.84 5 17.5L5 16.5C5 16.13 4.7 15.83 4.33 15.83C3.39 15.83 2.93 15.83 2.57 15.65C2.26 15.49 2 15.23 1.84 14.92C1.66 14.56 1.66 14.1 1.66 13.16L1.66 6.83C1.66 5.89 1.66 5.43 1.84 5.07C2 4.76 2.26 4.5 2.57 4.34C2.93 4.16 3.39 4.16 4.33 4.16L15.66 4.16Z" stroke="#3C4242" stroke-opacity="1.000000" stroke-width="1.500000"/>
	</g>
</svg>
