<svg width="18.000000" height="12.272705" viewBox="0 0 18 12.2727" fill="none" xmlns="http://www.w3.org/2000/svg" xmlns:xlink="http://www.w3.org/1999/xlink">
	<desc>
			Created with Pixso.
	</desc>
	<defs/>
	<rect id="Property 1=See" rx="-0.500000" width="17.000000" height="11.272727" transform="translate(0.500000 0.500000)" fill="#FFFFFF" fill-opacity="0"/>
	<path id="See" d="M9 0C5.04 0 1.65 2.37 0.15 5.77C0.04 6 0.04 6.26 0.15 6.5C1.65 9.89 5.04 12.27 9 12.27C12.95 12.27 16.34 9.89 17.84 6.5C17.95 6.26 17.95 6 17.84 5.77C16.34 2.37 12.95 0 9 0ZM9 10.22C6.74 10.22 4.9 8.39 4.9 6.13C4.9 3.87 6.74 2.04 9 2.04C11.25 2.04 13.09 3.87 13.09 6.13C13.09 8.39 11.25 10.22 9 10.22ZM9 3.68C7.64 3.68 6.54 4.77 6.54 6.13C6.54 7.49 7.64 8.59 9 8.59C10.35 8.59 11.45 7.49 11.45 6.13C11.45 4.77 10.35 3.68 9 3.68Z" fill="#807D7E" fill-opacity="1.000000" fill-rule="nonzero"/>
</svg>
