<svg width="17.103027" height="17.100830" viewBox="0 0 17.103 17.1008" fill="none" xmlns="http://www.w3.org/2000/svg" xmlns:xlink="http://www.w3.org/1999/xlink">
	<desc>
			Created with Pixso.
	</desc>
	<defs/>
	<path id="Size &amp; Fit" d="M12.18 16.55C13.19 16.55 14 15.75 14 14.76L14 8.13C14 7.61 14.63 7.35 15.01 7.72C15.35 8.05 15.93 7.87 16 7.4L16.52 4.35C16.64 3.63 16.3 2.91 15.66 2.53L12.35 0.58C12.25 0.52 12.13 0.54 12.06 0.63C10.26 2.84 6.83 2.84 5.03 0.63C4.96 0.54 4.84 0.52 4.74 0.58L1.43 2.53C0.79 2.91 0.45 3.63 0.57 4.35L1.09 7.4C1.17 7.87 1.75 8.05 2.09 7.72C2.46 7.35 3.09 7.61 3.09 8.13L3.09 14.76C3.09 15.75 3.91 16.55 4.91 16.55L12.18 16.55Z" stroke="#3C4242" stroke-opacity="1.000000" stroke-width="1.100000"/>
</svg>
