<svg width="19.100098" height="15.100098" viewBox="0 0 19.1001 15.1001" fill="none" xmlns="http://www.w3.org/2000/svg" xmlns:xlink="http://www.w3.org/1999/xlink">
	<desc>
			Created with Pixso.
	</desc>
	<defs/>
	<path id="truck" d="M2.35 12.68L1 12.68C0.75 12.68 0.55 12.47 0.55 12.21L0.55 1.01C0.55 0.75 0.75 0.55 1 0.55L10.9 0.55C11.14 0.55 11.35 0.75 11.35 1.01L11.35 12.21C11.35 12.47 11.14 12.68 10.9 12.68L5.94 12.68M11.35 12.21L11.35 3.81C11.35 3.55 11.55 3.35 11.8 3.35L14.76 3.35C14.88 3.35 14.99 3.39 15.08 3.48L18.41 6.94C18.5 7.03 18.54 7.15 18.54 7.27L18.54 12.21C18.54 12.47 18.34 12.68 18.1 12.68L16.75 12.68M13.15 12.68L11.8 12.68C11.55 12.68 11.35 12.47 11.35 12.21M4.15 14.55C3.15 14.55 2.35 13.71 2.35 12.68C2.35 11.65 3.15 10.81 4.15 10.81C5.14 10.81 5.94 11.65 5.94 12.68C5.94 13.71 5.14 14.55 4.15 14.55ZM14.95 14.55C13.95 14.55 13.15 13.71 13.15 12.68C13.15 11.65 13.95 10.81 14.95 10.81C15.94 10.81 16.75 11.65 16.75 12.68C16.75 13.71 15.94 14.55 14.95 14.55Z" stroke="#3C4242" stroke-opacity="1.000000" stroke-width="1.100000"/>
</svg>
