<svg width="36.000000" height="36.000000" viewBox="0 0 36 36" fill="none" xmlns="http://www.w3.org/2000/svg" xmlns:xlink="http://www.w3.org/1999/xlink">
	<desc>
			Created with Pixso.
	</desc>
	<defs/>
	<rect id="Rectangle 71" rx="12.000000" width="36.000000" height="36.000000" fill="#F6F6F6" fill-opacity="1.000000"/>
	<path id="Vector" d="M26.6 14.58C26.61 14.73 26.61 14.88 26.61 15.04C26.61 19.73 23.04 25.13 16.52 25.13C14.51 25.13 12.64 24.55 11.07 23.54C11.36 23.57 11.63 23.58 11.93 23.58C13.59 23.58 15.11 23.02 16.33 22.06C14.77 22.03 13.47 21.01 13.02 19.6C13.24 19.64 13.46 19.66 13.69 19.66C14 19.66 14.32 19.62 14.62 19.54C12.99 19.21 11.78 17.78 11.78 16.06L11.78 16.01C12.25 16.28 12.8 16.44 13.38 16.46C12.42 15.83 11.8 14.74 11.8 13.51C11.8 12.85 11.97 12.25 12.28 11.72C14.03 13.87 16.65 15.28 19.59 15.43C19.54 15.17 19.51 14.89 19.51 14.62C19.51 12.66 21.09 11.07 23.05 11.07C24.07 11.07 25 11.5 25.65 12.19C26.45 12.04 27.22 11.74 27.9 11.34C27.63 12.16 27.07 12.85 26.34 13.29C27.05 13.21 27.74 13.02 28.38 12.74C27.9 13.44 27.29 14.07 26.6 14.58Z" fill="#2A2F2F" fill-opacity="1.000000" fill-rule="nonzero"/>
</svg>
